<svg width="153" height="27" viewBox="0 0 153 27" fill="none" xmlns="http://www.w3.org/2000/svg">
<path d="M28 8.70911L26.7593 12.9708L25.9672 12.1806L21.7839 16.1319L18.7806 18.9684L16.3251 21.2875L14.0129 18.9684L12.9229 17.8748L11.5739 16.5208L11.1695 16.1159L8.95471 13.8931L8.10371 14.7155L7.81883 14.9902L6.46975 16.2961L5.11698 17.6037L3.72379 18.9505L3.7054 18.9684L1.71118 20.895L0 22.5505L2.72392 18.9684L6.46975 14.0394L7.81883 12.2662L8.98595 10.7302L11.5739 13.3276L12.6803 14.439L12.9229 14.6816L16.3747 18.1424L16.6798 17.8534L18.0289 16.5797L18.6281 16.0142L20.3723 14.3659L21.7839 13.0333L24.3718 10.5893L23.5778 9.79905L28 8.70911Z" fill="#F8FF2D"/>
<path d="M6.46975 8.70911V14.0394L2.72392 18.9684H2.71289V8.70911H6.46975Z" fill="#FF1500"/>
<path d="M1 26.8356C1 20.8608 7.37802 16 15.2217 16C19.2234 16 22.9457 17.2812 25.5778 19.4096C26.0966 19.8284 26.5719 20.2789 27 20.7599L25.3656 21.9996L22.7371 23.9912L22.0061 24.5468L21.4147 24.9946L20.0832 26.0063L19.7894 26.2288L19.0946 26.7568L18.9822 26.8439L18.9803 26.8425L18.9187 26.8895L16.3773 24.8882L15.2726 24.0174L11.6282 21.1469L9.40429 22.7971L7.681 24.0727L7.04248 24.5468L6.30057 25.0969L3.73559 27L11.6754 18.7102L16.7655 22.7169L18.9514 24.439L19.7894 23.8032L22.7372 21.5657L23.9761 20.6244C21.7612 18.8125 18.6103 17.7207 15.2218 17.7207C8.62425 17.7207 3.25846 21.8089 3.25846 26.8355L1 26.8356Z" fill="#00FF99"/>
<path d="M11.5739 5.60327V13.3276L8.98597 10.7302L7.81885 12.2661V5.60327H11.5739Z" fill="#FF1500"/>
<path d="M16.6797 3.08618V17.8534L16.3746 18.1424L12.9229 14.6816V3.08618H16.6797Z" fill="#FF1500"/>
<path d="M21.7838 0V13.0333L20.3722 14.3658L18.628 16.0142L18.0288 16.5797V0H21.7838Z" fill="#FF1500"/>
<path d="M33.477 22.5V5.04545H40.7554C42.0622 5.04545 43.1559 5.23011 44.0366 5.59943C44.923 5.96875 45.5878 6.48579 46.0309 7.15057C46.4798 7.81534 46.7042 8.58523 46.7042 9.46023C46.7042 10.125 46.565 10.7188 46.2866 11.2415C46.0082 11.7585 45.6247 12.1875 45.1361 12.5284C44.6474 12.8693 44.0821 13.108 43.44 13.2443V13.4148C44.1446 13.4489 44.7951 13.6392 45.3917 13.9858C45.994 14.3324 46.477 14.8153 46.8406 15.4347C47.2042 16.0483 47.3861 16.7756 47.3861 17.6165C47.3861 18.554 47.1474 19.392 46.6701 20.1307C46.1929 20.8636 45.5025 21.4432 44.5991 21.8693C43.6957 22.2898 42.5991 22.5 41.3093 22.5H33.477ZM37.6957 19.0994H40.3037C41.2184 19.0994 41.8917 18.9261 42.3236 18.5795C42.7611 18.233 42.9798 17.75 42.9798 17.1307C42.9798 16.6818 42.8747 16.2955 42.6645 15.9716C42.4542 15.642 42.1559 15.3892 41.7696 15.2131C41.3832 15.0312 40.9201 14.9403 40.3804 14.9403H37.6957V19.0994ZM37.6957 12.2216H40.0309C40.4912 12.2216 40.9003 12.1449 41.2582 11.9915C41.6162 11.8381 41.8946 11.6165 42.0934 11.3267C42.298 11.0369 42.4003 10.6875 42.4003 10.2784C42.4003 9.69318 42.1929 9.23295 41.7781 8.89773C41.3633 8.5625 40.8037 8.39489 40.0991 8.39489H37.6957V12.2216ZM54.5738 22.7472C53.2045 22.7472 52.0226 22.4773 51.0283 21.9375C50.0397 21.392 49.2783 20.6165 48.7442 19.6108C48.2158 18.5994 47.9516 17.3977 47.9516 16.0057C47.9516 14.6534 48.2187 13.4716 48.7528 12.4602C49.2868 11.4432 50.0397 10.6534 51.0113 10.0909C51.9829 9.52273 53.1278 9.23864 54.4459 9.23864C55.3778 9.23864 56.23 9.38352 57.0028 9.67329C57.7755 9.96307 58.4431 10.392 59.0056 10.9602C59.5681 11.5284 60.0056 12.2301 60.3181 13.0653C60.6306 13.8949 60.7868 14.8466 60.7868 15.9205V16.9602H49.409V14.5398H56.909C56.9033 14.0966 56.7982 13.7017 56.5937 13.3551C56.3891 13.0085 56.1079 12.7386 55.7499 12.5455C55.3976 12.3466 54.9914 12.2472 54.5312 12.2472C54.0653 12.2472 53.6476 12.3523 53.2783 12.5625C52.909 12.767 52.6164 13.0483 52.4005 13.4062C52.1846 13.7585 52.0709 14.1591 52.0596 14.608V17.071C52.0596 17.6051 52.1647 18.0739 52.3749 18.4773C52.5851 18.875 52.8834 19.1847 53.2698 19.4062C53.6562 19.6278 54.1164 19.7386 54.6505 19.7386C55.0198 19.7386 55.355 19.6875 55.6562 19.5852C55.9573 19.483 56.2158 19.3324 56.4317 19.1335C56.6476 18.9347 56.8096 18.6903 56.9175 18.4006L60.7442 18.5114C60.5851 19.3693 60.2357 20.1165 59.6959 20.7528C59.1618 21.3835 58.4601 21.875 57.5908 22.2273C56.7215 22.5739 55.7158 22.7472 54.5738 22.7472ZM65.6457 22.7216C64.8105 22.7216 64.069 22.5824 63.4213 22.304C62.7793 22.0199 62.2707 21.5937 61.8957 21.0256C61.5264 20.4517 61.3418 19.733 61.3418 18.8693C61.3418 18.142 61.4696 17.5284 61.7253 17.0284C61.981 16.5284 62.3332 16.1222 62.7821 15.8097C63.231 15.4972 63.748 15.2614 64.3332 15.1023C64.9185 14.9375 65.5435 14.8267 66.2082 14.7699C66.9526 14.7017 67.552 14.6307 68.0065 14.5568C68.4611 14.4773 68.7906 14.3665 68.9952 14.2244C69.2054 14.0767 69.3105 13.8693 69.3105 13.6023V13.5597C69.3105 13.1222 69.1599 12.7841 68.8588 12.5455C68.5577 12.3068 68.1514 12.1875 67.6401 12.1875C67.0889 12.1875 66.6457 12.3068 66.3105 12.5455C65.9753 12.7841 65.7622 13.1136 65.6713 13.5341L61.8276 13.3977C61.9412 12.6023 62.2338 11.892 62.7054 11.267C63.1827 10.6364 63.8361 10.142 64.6656 9.78409C65.5009 9.42045 66.5037 9.23864 67.6741 9.23864C68.5094 9.23864 69.2793 9.33807 69.9838 9.53693C70.6884 9.73011 71.302 10.0142 71.8247 10.3892C72.3474 10.7585 72.7509 11.2131 73.0349 11.7528C73.3247 12.2926 73.4696 12.9091 73.4696 13.6023V22.5H69.5491V20.6761H69.4469C69.2139 21.1193 68.9156 21.4943 68.552 21.8011C68.194 22.108 67.7707 22.3381 67.2821 22.4915C66.7991 22.6449 66.2537 22.7216 65.6457 22.7216ZM66.9327 19.9943C67.3815 19.9943 67.7849 19.9034 68.1429 19.7216C68.5065 19.5398 68.7963 19.2898 69.0122 18.9716C69.2281 18.6477 69.3361 18.2727 69.3361 17.8466V16.6023C69.2168 16.6648 69.0719 16.7216 68.9014 16.7727C68.7366 16.8239 68.5548 16.8722 68.356 16.9176C68.1571 16.9631 67.9526 17.0028 67.7423 17.0369C67.5321 17.071 67.3304 17.1023 67.1372 17.1307C66.7452 17.1932 66.4099 17.2898 66.1315 17.4205C65.8588 17.5511 65.6486 17.7216 65.5009 17.9318C65.3588 18.1364 65.2878 18.3807 65.2878 18.6648C65.2878 19.0966 65.4412 19.4261 65.748 19.6534C66.0605 19.8807 66.4554 19.9943 66.9327 19.9943ZM81.1687 22.7472C79.788 22.7472 78.6034 22.4631 77.6147 21.8949C76.6318 21.3267 75.8761 20.5369 75.3477 19.5256C74.8193 18.5085 74.5551 17.3324 74.5551 15.9972C74.5551 14.6562 74.8193 13.4801 75.3477 12.4688C75.8818 11.4517 76.6403 10.6591 77.6232 10.0909C78.6119 9.52273 79.7909 9.23864 81.1602 9.23864C82.3704 9.23864 83.4244 9.45739 84.3221 9.89489C85.2255 10.3324 85.9301 10.9517 86.4357 11.7528C86.9471 12.5483 87.217 13.483 87.2454 14.5568H83.3505C83.271 13.8864 83.0437 13.3608 82.6687 12.9801C82.2994 12.5994 81.8164 12.4091 81.2198 12.4091C80.7369 12.4091 80.3136 12.5455 79.9499 12.8182C79.5863 13.0852 79.3022 13.483 79.0977 14.0114C78.8988 14.5341 78.7994 15.1818 78.7994 15.9545C78.7994 16.7273 78.8988 17.3807 79.0977 17.9148C79.3022 18.4432 79.5863 18.8437 79.9499 19.1165C80.3136 19.3835 80.7369 19.517 81.2198 19.517C81.6062 19.517 81.9471 19.4347 82.2426 19.2699C82.5437 19.1051 82.7909 18.8636 82.984 18.5455C83.1772 18.2216 83.2994 17.8295 83.3505 17.3693H87.2454C87.2056 18.4489 86.9357 19.392 86.4357 20.1989C85.9414 21.0057 85.2454 21.6335 84.3477 22.0824C83.4556 22.5256 82.396 22.7472 81.1687 22.7472ZM94.529 22.7472C93.154 22.7472 91.9722 22.4659 90.9836 21.9034C90.0006 21.3352 89.2421 20.5455 88.708 19.5341C88.1796 18.517 87.9154 17.3381 87.9154 15.9972C87.9154 14.6506 88.1796 13.4716 88.708 12.4602C89.2421 11.4432 90.0006 10.6534 90.9836 10.0909C91.9722 9.52273 93.154 9.23864 94.529 9.23864C95.904 9.23864 97.083 9.52273 98.0659 10.0909C99.0546 10.6534 99.8131 11.4432 100.342 12.4602C100.876 13.4716 101.143 14.6506 101.143 15.9972C101.143 17.3381 100.876 18.517 100.342 19.5341C99.8131 20.5455 99.0546 21.3352 98.0659 21.9034C97.083 22.4659 95.904 22.7472 94.529 22.7472ZM94.5546 19.6023C95.0546 19.6023 95.4779 19.4489 95.8245 19.142C96.1711 18.8352 96.4353 18.4091 96.6171 17.8636C96.8046 17.3182 96.8983 16.6875 96.8983 15.9716C96.8983 15.2443 96.8046 14.608 96.6171 14.0625C96.4353 13.517 96.1711 13.0909 95.8245 12.7841C95.4779 12.4773 95.0546 12.3239 94.5546 12.3239C94.0375 12.3239 93.6 12.4773 93.2421 12.7841C92.8898 13.0909 92.6199 13.517 92.4324 14.0625C92.2506 14.608 92.1597 15.2443 92.1597 15.9716C92.1597 16.6875 92.2506 17.3182 92.4324 17.8636C92.6199 18.4091 92.8898 18.8352 93.2421 19.142C93.6 19.4489 94.0375 19.6023 94.5546 19.6023ZM106.485 15.0341V22.5H102.318V9.40909H106.281V11.8125H106.426C106.715 11.0114 107.21 10.3835 107.908 9.92898C108.607 9.46875 109.44 9.23864 110.406 9.23864C111.326 9.23864 112.124 9.44602 112.801 9.86079C113.482 10.2699 114.011 10.8437 114.386 11.5824C114.766 12.3153 114.954 13.1733 114.948 14.1562V22.5H110.781V14.9744C110.786 14.2472 110.602 13.679 110.227 13.2699C109.857 12.8608 109.343 12.6562 108.684 12.6562C108.247 12.6562 107.86 12.7528 107.525 12.946C107.195 13.1335 106.94 13.4034 106.758 13.7557C106.582 14.108 106.491 14.5341 106.485 15.0341ZM123.958 9.40909V12.4773H115.699V9.40909H123.958ZM117.429 6.27273H121.597V18.3835C121.597 18.6392 121.637 18.8466 121.716 19.0057C121.801 19.1591 121.924 19.2699 122.083 19.3381C122.242 19.4006 122.432 19.4318 122.654 19.4318C122.813 19.4318 122.98 19.4176 123.157 19.3892C123.338 19.3551 123.475 19.3267 123.566 19.304L124.196 22.3125C123.997 22.3693 123.716 22.4403 123.353 22.5256C122.995 22.6108 122.566 22.6648 122.066 22.6875C121.088 22.733 120.25 22.6193 119.551 22.3466C118.858 22.0682 118.327 21.6364 117.958 21.0511C117.594 20.4659 117.418 19.7301 117.429 18.8438V6.27273ZM125.124 22.5V9.40909H129.172V11.7955H129.309C129.547 10.9318 129.937 10.2898 130.476 9.86932C131.016 9.44318 131.644 9.23011 132.36 9.23011C132.553 9.23011 132.752 9.24432 132.957 9.27273C133.161 9.29545 133.351 9.33239 133.528 9.38352V13.0057C133.329 12.9375 133.067 12.8835 132.743 12.8438C132.425 12.804 132.141 12.7841 131.891 12.7841C131.397 12.7841 130.951 12.8949 130.553 13.1165C130.161 13.3324 129.851 13.6364 129.624 14.0284C129.403 14.4148 129.292 14.8693 129.292 15.392V22.5H125.124ZM134.266 22.5V9.40909H138.433V22.5H134.266ZM136.354 7.88352C135.769 7.88352 135.266 7.69034 134.845 7.30398C134.425 6.91193 134.215 6.44034 134.215 5.8892C134.215 5.34375 134.425 4.87784 134.845 4.49148C135.266 4.09943 135.769 3.90341 136.354 3.90341C136.945 3.90341 137.448 4.09943 137.862 4.49148C138.283 4.87784 138.493 5.34375 138.493 5.8892C138.493 6.44034 138.283 6.91193 137.862 7.30398C137.448 7.69034 136.945 7.88352 136.354 7.88352ZM143.671 9.40909L145.828 13.7216L148.061 9.40909H152.262L148.606 15.9545L152.399 22.5H148.231L145.828 18.1534L143.484 22.5H139.257L143.058 15.9545L139.444 9.40909H143.671Z" fill="white"/>
</svg>
