<svg width="164" height="30" viewBox="0 0 164 30" fill="none" xmlns="http://www.w3.org/2000/svg">
<path d="M28 9.67676L26.7593 14.412L25.9672 13.534L21.7839 17.9243L18.7806 21.076L16.3251 23.6527L14.0129 21.076L12.9229 19.8609L11.5739 18.3564L11.1695 17.9065L8.95471 15.4368L8.10371 16.3505L7.81883 16.6558L6.46975 18.1067L5.11698 19.5596L3.72379 21.0561L3.7054 21.076L1.71118 23.2166L0 25.0561L2.72392 21.076L6.46975 15.5993L7.81883 13.6291L8.98595 11.9225L11.5739 14.8084L12.6803 16.0433L12.9229 16.3129L16.3747 20.1582L16.6798 19.8371L18.0289 18.4219L18.6281 17.7935L20.3723 15.9621L21.7839 14.4814L24.3718 11.7659L23.5778 10.8878L28 9.67676Z" fill="#F8FF2D"/>
<path d="M6.46975 9.67676V15.5993L2.72392 21.076H2.71289V9.67676H6.46975Z" fill="#FF1500"/>
<path d="M1 29.8173C1 23.1787 7.37802 17.7778 15.2217 17.7778C19.2234 17.7778 22.9457 19.2013 25.5778 21.5662C26.0966 22.0315 26.5719 22.5322 27 23.0666L25.3656 24.444L22.7371 26.6569L22.0061 27.2743L21.4147 27.7718L20.0832 28.8959L19.7894 29.1431L19.0946 29.7298L18.9822 29.8265L18.9803 29.825L18.9187 29.8772L16.3773 27.6536L15.2726 26.6861L11.6282 23.4965L9.40429 25.3301L7.681 26.7475L7.04248 27.2742L6.30057 27.8854L3.73559 30L11.6754 20.7891L16.7655 25.241L18.9514 27.1545L19.7894 26.4481L22.7372 23.9618L23.9761 22.916C21.7612 20.9028 18.6103 19.6896 15.2218 19.6896C8.62425 19.6896 3.25846 24.2321 3.25846 29.8173L1 29.8173Z" fill="#00FF99"/>
<path d="M11.5739 6.22583V14.8084L8.98597 11.9224L7.81885 13.629V6.22583H11.5739Z" fill="#FF1500"/>
<path d="M16.6797 3.42908V19.8371L16.3746 20.1582L12.9229 16.3129V3.42908H16.6797Z" fill="#FF1500"/>
<path d="M21.7838 0V14.4814L20.3722 15.962L18.628 17.7935L18.0288 18.4218V0H21.7838Z" fill="#FF1500"/>
<path d="M37.737 24V6.54545H45.0154C46.3222 6.54545 47.4159 6.73011 48.2966 7.09943C49.183 7.46875 49.8478 7.98579 50.2909 8.65057C50.7398 9.31534 50.9642 10.0852 50.9642 10.9602C50.9642 11.625 50.825 12.2188 50.5466 12.7415C50.2682 13.2585 49.8847 13.6875 49.3961 14.0284C48.9074 14.3693 48.3421 14.608 47.7 14.7443V14.9148C48.4046 14.9489 49.0551 15.1392 49.6517 15.4858C50.254 15.8324 50.737 16.3153 51.1006 16.9347C51.4642 17.5483 51.6461 18.2756 51.6461 19.1165C51.6461 20.054 51.4074 20.892 50.9301 21.6307C50.4529 22.3636 49.7625 22.9432 48.8591 23.3693C47.9557 23.7898 46.8591 24 45.5693 24H37.737ZM41.9557 20.5994H44.5637C45.4784 20.5994 46.1517 20.4261 46.5836 20.0795C47.0211 19.733 47.2398 19.25 47.2398 18.6307C47.2398 18.1818 47.1347 17.7955 46.9245 17.4716C46.7142 17.142 46.4159 16.8892 46.0296 16.7131C45.6432 16.5312 45.1801 16.4403 44.6404 16.4403H41.9557V20.5994ZM41.9557 13.7216H44.2909C44.7512 13.7216 45.1603 13.6449 45.5182 13.4915C45.8762 13.3381 46.1546 13.1165 46.3534 12.8267C46.558 12.5369 46.6603 12.1875 46.6603 11.7784C46.6603 11.1932 46.4529 10.733 46.0381 10.3977C45.6233 10.0625 45.0637 9.89489 44.3591 9.89489H41.9557V13.7216ZM59.5538 24.2472C58.1845 24.2472 57.0026 23.9773 56.0083 23.4375C55.0197 22.892 54.2583 22.1165 53.7242 21.1108C53.1958 20.0994 52.9316 18.8977 52.9316 17.5057C52.9316 16.1534 53.1987 14.9716 53.7328 13.9602C54.2668 12.9432 55.0197 12.1534 55.9913 11.5909C56.9629 11.0227 58.1078 10.7386 59.4259 10.7386C60.3578 10.7386 61.21 10.8835 61.9828 11.1733C62.7555 11.4631 63.4231 11.892 63.9856 12.4602C64.5481 13.0284 64.9856 13.7301 65.2981 14.5653C65.6106 15.3949 65.7668 16.3466 65.7668 17.4205V18.4602H54.389V16.0398H61.889C61.8833 15.5966 61.7782 15.2017 61.5737 14.8551C61.3691 14.5085 61.0879 14.2386 60.7299 14.0455C60.3776 13.8466 59.9714 13.7472 59.5112 13.7472C59.0453 13.7472 58.6276 13.8523 58.2583 14.0625C57.889 14.267 57.5964 14.5483 57.3805 14.9062C57.1646 15.2585 57.0509 15.6591 57.0396 16.108V18.571C57.0396 19.1051 57.1447 19.5739 57.3549 19.9773C57.5651 20.375 57.8634 20.6847 58.2498 20.9062C58.6362 21.1278 59.0964 21.2386 59.6305 21.2386C59.9998 21.2386 60.335 21.1875 60.6362 21.0852C60.9373 20.983 61.1958 20.8324 61.4117 20.6335C61.6276 20.4347 61.7896 20.1903 61.8975 19.9006L65.7242 20.0114C65.5651 20.8693 65.2157 21.6165 64.6759 22.2528C64.1418 22.8835 63.4401 23.375 62.5708 23.7273C61.7015 24.0739 60.6958 24.2472 59.5538 24.2472ZM71.3457 24.2216C70.5105 24.2216 69.769 24.0824 69.1213 23.804C68.4793 23.5199 67.9707 23.0937 67.5957 22.5256C67.2264 21.9517 67.0418 21.233 67.0418 20.3693C67.0418 19.642 67.1696 19.0284 67.4253 18.5284C67.681 18.0284 68.0332 17.6222 68.4821 17.3097C68.931 16.9972 69.448 16.7614 70.0332 16.6023C70.6185 16.4375 71.2435 16.3267 71.9082 16.2699C72.6526 16.2017 73.252 16.1307 73.7065 16.0568C74.1611 15.9773 74.4906 15.8665 74.6952 15.7244C74.9054 15.5767 75.0105 15.3693 75.0105 15.1023V15.0597C75.0105 14.6222 74.8599 14.2841 74.5588 14.0455C74.2577 13.8068 73.8514 13.6875 73.3401 13.6875C72.7889 13.6875 72.3457 13.8068 72.0105 14.0455C71.6753 14.2841 71.4622 14.6136 71.3713 15.0341L67.5276 14.8977C67.6412 14.1023 67.9338 13.392 68.4054 12.767C68.8827 12.1364 69.5361 11.642 70.3656 11.2841C71.2009 10.9205 72.2037 10.7386 73.3742 10.7386C74.2094 10.7386 74.9793 10.8381 75.6838 11.0369C76.3884 11.2301 77.002 11.5142 77.5247 11.8892C78.0474 12.2585 78.4509 12.7131 78.7349 13.2528C79.0247 13.7926 79.1696 14.4091 79.1696 15.1023V24H75.2492V22.1761H75.1469C74.9139 22.6193 74.6156 22.9943 74.252 23.3011C73.894 23.608 73.4707 23.8381 72.9821 23.9915C72.4992 24.1449 71.9537 24.2216 71.3457 24.2216ZM72.6327 21.4943C73.0815 21.4943 73.4849 21.4034 73.8429 21.2216C74.2065 21.0398 74.4963 20.7898 74.7122 20.4716C74.9281 20.1477 75.0361 19.7727 75.0361 19.3466V18.1023C74.9168 18.1648 74.7719 18.2216 74.6014 18.2727C74.4367 18.3239 74.2548 18.3722 74.056 18.4176C73.8571 18.4631 73.6526 18.5028 73.4423 18.5369C73.2321 18.571 73.0304 18.6023 72.8372 18.6307C72.4452 18.6932 72.1099 18.7898 71.8315 18.9205C71.5588 19.0511 71.3486 19.2216 71.2009 19.4318C71.0588 19.6364 70.9878 19.8807 70.9878 20.1648C70.9878 20.5966 71.1412 20.9261 71.448 21.1534C71.7605 21.3807 72.1554 21.4943 72.6327 21.4943ZM87.5887 24.2472C86.208 24.2472 85.0234 23.9631 84.0347 23.3949C83.0518 22.8267 82.2961 22.0369 81.7677 21.0256C81.2393 20.0085 80.9751 18.8324 80.9751 17.4972C80.9751 16.1562 81.2393 14.9801 81.7677 13.9688C82.3018 12.9517 83.0603 12.1591 84.0432 11.5909C85.0319 11.0227 86.2109 10.7386 87.5802 10.7386C88.7904 10.7386 89.8444 10.9574 90.7421 11.3949C91.6455 11.8324 92.3501 12.4517 92.8557 13.2528C93.3671 14.0483 93.637 14.983 93.6654 16.0568H89.7705C89.691 15.3864 89.4637 14.8608 89.0887 14.4801C88.7194 14.0994 88.2364 13.9091 87.6398 13.9091C87.1569 13.9091 86.7336 14.0455 86.3699 14.3182C86.0063 14.5852 85.7222 14.983 85.5177 15.5114C85.3188 16.0341 85.2194 16.6818 85.2194 17.4545C85.2194 18.2273 85.3188 18.8807 85.5177 19.4148C85.7222 19.9432 86.0063 20.3437 86.3699 20.6165C86.7336 20.8835 87.1569 21.017 87.6398 21.017C88.0262 21.017 88.3671 20.9347 88.6626 20.7699C88.9637 20.6051 89.2109 20.3636 89.404 20.0455C89.5972 19.7216 89.7194 19.3295 89.7705 18.8693H93.6654C93.6256 19.9489 93.3557 20.892 92.8557 21.6989C92.3614 22.5057 91.6654 23.1335 90.7677 23.5824C89.8756 24.0256 88.816 24.2472 87.5887 24.2472ZM101.669 24.2472C100.294 24.2472 99.1122 23.9659 98.1236 23.4034C97.1406 22.8352 96.3821 22.0455 95.848 21.0341C95.3196 20.017 95.0554 18.8381 95.0554 17.4972C95.0554 16.1506 95.3196 14.9716 95.848 13.9602C96.3821 12.9432 97.1406 12.1534 98.1236 11.5909C99.1122 11.0227 100.294 10.7386 101.669 10.7386C103.044 10.7386 104.223 11.0227 105.206 11.5909C106.195 12.1534 106.953 12.9432 107.482 13.9602C108.016 14.9716 108.283 16.1506 108.283 17.4972C108.283 18.8381 108.016 20.017 107.482 21.0341C106.953 22.0455 106.195 22.8352 105.206 23.4034C104.223 23.9659 103.044 24.2472 101.669 24.2472ZM101.695 21.1023C102.195 21.1023 102.618 20.9489 102.964 20.642C103.311 20.3352 103.575 19.9091 103.757 19.3636C103.945 18.8182 104.038 18.1875 104.038 17.4716C104.038 16.7443 103.945 16.108 103.757 15.5625C103.575 15.017 103.311 14.5909 102.964 14.2841C102.618 13.9773 102.195 13.8239 101.695 13.8239C101.178 13.8239 100.74 13.9773 100.382 14.2841C100.03 14.5909 99.7599 15.017 99.5724 15.5625C99.3906 16.108 99.2997 16.7443 99.2997 17.4716C99.2997 18.1875 99.3906 18.8182 99.5724 19.3636C99.7599 19.9091 100.03 20.3352 100.382 20.642C100.74 20.9489 101.178 21.1023 101.695 21.1023ZM114.345 16.5341V24H110.178V10.9091H114.141V13.3125H114.286C114.575 12.5114 115.07 11.8835 115.768 11.429C116.467 10.9688 117.3 10.7386 118.266 10.7386C119.186 10.7386 119.984 10.946 120.661 11.3608C121.342 11.7699 121.871 12.3437 122.246 13.0824C122.626 13.8153 122.814 14.6733 122.808 15.6562V24H118.641V16.4744C118.646 15.7472 118.462 15.179 118.087 14.7699C117.717 14.3608 117.203 14.1562 116.544 14.1562C116.107 14.1562 115.72 14.2528 115.385 14.446C115.055 14.6335 114.8 14.9034 114.618 15.2557C114.442 15.608 114.351 16.0341 114.345 16.5341ZM132.538 10.9091V13.9773H124.279V10.9091H132.538ZM126.009 7.77273H130.177V19.8835C130.177 20.1392 130.217 20.3466 130.296 20.5057C130.381 20.6591 130.504 20.7699 130.663 20.8381C130.822 20.9006 131.012 20.9318 131.234 20.9318C131.393 20.9318 131.56 20.9176 131.737 20.8892C131.918 20.8551 132.055 20.8267 132.146 20.804L132.776 23.8125C132.577 23.8693 132.296 23.9403 131.933 24.0256C131.575 24.1108 131.146 24.1648 130.646 24.1875C129.668 24.233 128.83 24.1193 128.131 23.8466C127.438 23.5682 126.907 23.1364 126.538 22.5511C126.174 21.9659 125.998 21.2301 126.009 20.3438V7.77273ZM134.424 24V10.9091H138.472V13.2955H138.609C138.847 12.4318 139.237 11.7898 139.776 11.3693C140.316 10.9432 140.944 10.7301 141.66 10.7301C141.853 10.7301 142.052 10.7443 142.257 10.7727C142.461 10.7955 142.651 10.8324 142.828 10.8835V14.5057C142.629 14.4375 142.367 14.3835 142.043 14.3438C141.725 14.304 141.441 14.2841 141.191 14.2841C140.697 14.2841 140.251 14.3949 139.853 14.6165C139.461 14.8324 139.151 15.1364 138.924 15.5284C138.703 15.9148 138.592 16.3693 138.592 16.892V24H134.424ZM144.286 24V10.9091H148.453V24H144.286ZM146.374 9.38352C145.789 9.38352 145.286 9.19034 144.865 8.80398C144.445 8.41193 144.235 7.94034 144.235 7.3892C144.235 6.84375 144.445 6.37784 144.865 5.99148C145.286 5.59943 145.789 5.40341 146.374 5.40341C146.965 5.40341 147.468 5.59943 147.882 5.99148C148.303 6.37784 148.513 6.84375 148.513 7.3892C148.513 7.94034 148.303 8.41193 147.882 8.80398C147.468 9.19034 146.965 9.38352 146.374 9.38352ZM154.411 10.9091L156.568 15.2216L158.801 10.9091H163.002L159.346 17.4545L163.139 24H158.971L156.568 19.6534L154.224 24H149.997L153.798 17.4545L150.184 10.9091H154.411Z" fill="white"/>
</svg>
